<svg id="Capa_1" data-name="Capa 1" xmlns="http://www.w3.org/2000/svg" viewBox="0 0 510.24 510.24"><defs><style>.cls-1{fill:#0f4f55;}.cls-2{fill:#ec6566;}.cls-3{fill:#0e4f55;}</style></defs><path class="cls-1" d="M385.88,280.19c-1.27-2.33-8.79-4.66-8.79-7.28q.07-64.29,0-128.56c0-1.84-.16-3.68-.3-5.51-.25-3.36-2.32-5.38-5.44-6.64a11.28,11.28,0,0,0-4.35-.47H148.56c-.55,0-1.1,0-1.65,0-4.38.18-7.64,3-8.06,7.17a53.38,53.38,0,0,0-.3,5.51q0,38.24,0,76.47l.06-.1a3.09,3.09,0,0,1,1.27-.86l1.23-.62c1.31-.66,2.61-1.34,3.86-2.09a3.38,3.38,0,0,1,2.29-.47l.25.08V144.1c0-3.73,0-3.74,4-3.74h212.7c3.95,0,4,0,4,3.75V269.54c0,3.68,0,3.68-4,3.68H169.93a2.64,2.64,0,0,1,.23.44,2.84,2.84,0,0,1,2.5,1.91,3,3,0,0,1-1.83,3.83c-10.8,2.63-22.31,2.33-33.26.79a3.12,3.12,0,0,1-.73-.21c-5.4,10-10.46,20.13-16.15,30A35.26,35.26,0,0,0,116,328.45c0,7.08,5,10.95,11.65,10.94q130.09-.19,260.17,0c5.42,0,9.23-1.8,11.43-6.54V318.09C392.51,305.45,392.72,292.79,385.88,280.19ZM145,283.39a2.59,2.59,0,0,1,2.64-1.49c.83,0,1.66,0,2.49,0q107.7,0,215.4-.07c3.21,0,4.9.9,6.31,3.67,5.07,10,10.44,19.87,15.7,29.79-.9.85-1.87.5-2.72.5-28,0-56,0-83.95.07-2.51,0-3.62-.78-4.18-3-.95-3.83-2.14-7.6-3.25-11.4-1.41-4.82-4-7-9.27-7q-26.37-.17-52.75,0c-5.26,0-7.82,2.24-9.24,7.08-1.19,4-2.41,8.08-3.53,12.14a2.55,2.55,0,0,1-2.82,2.23q-43.36-.06-86.72,0a7.17,7.17,0,0,1-1.15-.26C133.75,304.65,139.4,294,145,283.39Zm140.44,32.44c-9.21-.06-18.42,0-27.63,0s-18.41,0-27.62,0c-2.07,0-2.92-.43-2.15-2.58a76.26,76.26,0,0,0,2.26-7.84c.41-1.74,1.25-2.45,3.2-2.44q24.31.09,48.62,0c2,0,2.79.7,3.21,2.44a73.83,73.83,0,0,0,2.26,7.84C288.38,315.41,287.52,315.84,285.46,315.83Zm105.22,13.63a1.91,1.91,0,0,1-1.95,1.18c-1,0-2,0-3,0H128.84c-3.57,0-5.31-2.61-3.86-5.71a1.53,1.53,0,0,1,1.54-.87l2.76,0H387C390.55,324.08,392,326.2,390.68,329.46Z"/><path class="cls-1" d="M360,220.07a19.26,19.26,0,0,0-.31-3.39,4,4,0,0,0-4.37-3.56,4.14,4.14,0,0,0-4.26,4c-.06.78,0,1.57,0,2.36,0,11.48-.06,23,0,34.44,0,2.24-.57,3.05-3.07,3q-84.35-.07-168.69,0a2.25,2.25,0,0,1,.9,2.41c-1.5,4.73-5.36,5.93-9.58,6.22H349.54a24.71,24.71,0,0,0,3.85-.19c4.06-.64,5.89-2.52,6.36-6.42a25.69,25.69,0,0,0,.24-3.15Q360,238,360,220.07Z"/><path class="cls-1" d="M360,156.59c-.06-6.41-2.55-8.55-9.33-8.55H167.55c.86,1.77.88,4.28,1,6,.06.89.1,1.77.11,2.66H346.45c4.57,0,4.57,0,4.57,4.22V189c0,2.36,0,4.73,0,7.09a4.26,4.26,0,0,0,4,4.29,4.38,4.38,0,0,0,4.7-3.86,16.5,16.5,0,0,0,.26-2.62C360,181.47,360.07,169,360,156.59Z"/><path class="cls-1" d="M285.08,256.34c-2.57-19.1-12.41-33.18-29-42.59-.42-.24-.92-.83-1.43-.3s0,.88.17,1.32A35.81,35.81,0,0,1,257,224.88c.08,2.2.63,3.58,3,4.55,6.78,2.81,9.6,10.93,6.46,17.61a13,13,0,0,1-17.58,6.29,12.6,12.6,0,0,1-7.37-12.71c.27-5.5,3.17-9.3,8.08-11.42,1.72-.75,2.25-1.67,1.93-3.37-.43-2.26-.72-4.56-1.28-6.79-1.72-6.71-5.3-11.36-12.88-11.39-1.05,0-2.18-.4-2.54,1.19a17.29,17.29,0,0,1-3.8,6.89c-8.14,10-18,18-28,26a1.76,1.76,0,0,1-2.51-.15c-9.28-7.33-18.39-14.85-26.22-23.79-2.36-2.69-4.62-5.51-5.5-9.13-.26-1.08-1.09-1.11-1.91-1-1.66.24-3.3.63-5,.81-3.44.38-5.53,2.42-7,5.38a30.37,30.37,0,0,0-2.64,9.75c-.54,3.75.48,6.17,3.77,8.15a23.5,23.5,0,0,1,6.85,6.51c2.31,3.15,3.3,6.69,4.2,10.51,1.3,5.61,2.31,11.14,1.95,16.88-.24,3.86-1.67,6.78-5.66,8.27a18.5,18.5,0,0,1-6.91.9,3.84,3.84,0,0,1-4-3.7,4,4,0,0,1,3.87-3.72,16.17,16.17,0,0,1,4.23.05c1.68.33,2.08-.55,2.17-1.82a50.08,50.08,0,0,0-.15-8.12c-.61-6.76-4.46-11.81-8.5-16.67-2.93-3.51-6.06-3.25-9.41-.13-3.07,2.86-4.9,6.69-6.9,10.16-2.59,4.52-2.69,10-1.88,15.28.18,1.17.71,1.52,1.94,1.36a12.78,12.78,0,0,1,5.8.19,3.37,3.37,0,0,1,2.47,3.91,3.5,3.5,0,0,1-3.36,3.19,29.94,29.94,0,0,1-4.64,0c-4.89-.5-7.87-3.15-8.54-8-1.14-8.19.77-16.06,3.5-23.63,1.73-4.82,5.25-8.53,9.58-11.53,1.85-1.28,3.74-3.06,3.84-6a36.06,36.06,0,0,1,1.24-8.5,3.07,3.07,0,0,1-2-2.24,52.12,52.12,0,0,0-12.39,9.84,54.93,54.93,0,0,0-15.06,41.83c.66,11.71,5.46,20.16,18.65,23.65,7.67,2,15.55,2.25,23.4,2.33,13.8.13,27.59,0,41.38,0s27.86.08,41.79,0c7.39-.05,14.79-.33,22-2,9.76-2.2,16.78-7.47,19.14-17.77A45.61,45.61,0,0,0,285.08,256.34Z"/><path class="cls-1" d="M248,151.13c-.53,15.46-5.62,29.43-14,42.27a55.75,55.75,0,0,1-15.39,16.22c-11.72,7.89-24.47,7.39-35.57-1.36C172.55,200,165.82,189,161,176.71a70.58,70.58,0,0,1-5.38-26.33c.09-20.93,14.56-39.63,34.69-44.67A46.21,46.21,0,0,1,247.4,143.2,37.49,37.49,0,0,1,248,151.13Z"/><path class="cls-1" d="M260.85,241.28a6.17,6.17,0,0,1-6.24,6.52,6.31,6.31,0,0,1-6.53-6.3,6.61,6.61,0,0,1,6.54-6.61A6.31,6.31,0,0,1,260.85,241.28Z"/><path class="cls-1" d="M62.18,284.8a196.34,196.34,0,0,0,13.34,47.08c4.5.53,5.68-.57,8.46-2.28,4.76-2.92,3-2.62,4.76-5.16q-1.81-4.32-3.43-8.8c-7.94-22.29-10.65-45.42-10.86-68.88-.27-30.88-.06-61.76-.06-92.65,0-1.32,0-2.65,0-4-.28-5.08-4-8-9-7-4,.81-5.67,3.23-5.68,8.59,0,34.12,0,68.24,0,102.35A195.92,195.92,0,0,0,62.18,284.8Z"/><path class="cls-2" d="M441,117.63c-.17,42.36,0,84.71-.15,127.07-.05,15.41-.68,30.82-3.39,46.08a184.09,184.09,0,0,1-6.91,26.86,4.83,4.83,0,0,1,.5.16l.14.06a12.93,12.93,0,0,0,17.7-8.58,215.1,215.1,0,0,0,6.73-52.95c.17-22.94,0-45.88,0-68.82q0-40.38,0-80.74c0-6.07-1.67-8.17-7.64-9.34-4.32-.85-8.7-1.39-13-2.09A660.41,660.41,0,0,1,270.57,46.12a31.67,31.67,0,0,0-25.86.05c-42,18.9-85.66,32.86-130.62,42.9-15.77,3.52-31.73,6-47.65,8.66-5,.84-6.71,3.16-6.77,8.19-.06,5.73,0,11.47,0,17.2,0,7.73,2,10.69,7.18,10.8,5.42.11,7.55-2.95,7.56-10.87,0-11.23,0-11.23,11-13A678.67,678.67,0,0,0,251.56,59.84a13.25,13.25,0,0,1,12,0,657.59,657.59,0,0,0,171.81,51C439.8,111.49,441,113.26,441,117.63Z"/><path class="cls-3" d="M126,439.27H114.64L110,378.69h-.29l-12.4,60.58H89.69L78,378.69h-.36l-4.78,60.58H61.32l8.93-94.71H80.88L93.55,411h.28l13-66.39h10.62Z"/><path class="cls-3" d="M172.35,439.27H139.41V344.56h32.37v10.78H151.56v30h18.72v10.78H151.56v32.63h20.79Z"/><path class="cls-1" d="M187.14,344.56h17.72q12.57,0,19.82,9.85t7.25,37.06q0,26.25-6.36,37t-22.86,10.78H187.14Zm12.29,9.74v75.38q7.71,0,11.71-3t6-11.08q2-8.1,2-24.31,0-20.65-3.68-28.84t-14.32-8.18Z"/><path class="cls-1" d="M246.29,354.45a6.59,6.59,0,0,1,1.9-4.68,6.12,6.12,0,0,1,9.07,0,6.79,6.79,0,0,1,0,9.4,6.25,6.25,0,0,1-9.11,0A6.62,6.62,0,0,1,246.29,354.45Zm.57,19.85h11.58v65H246.86Z"/><path class="cls-2" d="M311.66,447.52q0,10.11-4.49,14.72t-14.33,4.61q-10.48,0-15-4.16t-4.42-15.31h11.22q.57,10.62,7.89,10.63,7.54,0,7.54-8V430.57h-.28q-3.44,9.6-12.12,9.59-6,0-10.12-6t-4.13-28.69q0-20.44,3.78-26.28a12,12,0,0,1,10.61-5.84q4.71,0,7.09,1.79a21.44,21.44,0,0,1,4.89,5.72h.28V374.3h11.57Zm-18.54-18.58c2.71,0,4.54-1.55,5.51-4.65s1.46-8.31,1.46-15.65q0-15.67-1.32-20.62c-.87-3.3-2.76-4.95-5.65-4.95-2.65,0-4.55,1.6-5.68,4.8s-1.71,8.31-1.71,15.35q0,14,1.24,19.85T293.12,428.94Z"/><path class="cls-2" d="M327.24,354.45a6.62,6.62,0,0,1,1.89-4.68,6.13,6.13,0,0,1,9.08,0,6.79,6.79,0,0,1,0,9.4,6.11,6.11,0,0,1-4.54,2,6,6,0,0,1-4.57-2A6.62,6.62,0,0,1,327.24,354.45Zm.57,19.85h11.57v65H327.81Z"/><path class="cls-2" d="M377.18,383.89h-7.5v55.38H358V383.89h-7.5V374.3H358V356.61h11.72V374.3h7.5Z"/><path class="cls-2" d="M426.4,439.27H414.68v-7.88h-.35q-4.49,8.78-11.62,8.77c-4,0-7.6-2-10.68-5.91s-4.64-12.77-4.64-26.5q0-18.28,3.5-26.35t12-8.07a10.13,10.13,0,0,1,6.45,1.94,22.87,22.87,0,0,1,5,6.17h.35V374.3H426.4Zm-19.14-9.74q4.46,0,5.94-5.57t1.48-19q0-11.75-1.34-16.54c-.9-3.2-2.78-4.79-5.66-4.79s-4.87,1.48-6,4.46S400,396.48,400,404.26q0,13.75,1.31,19.51T407.26,429.53Z"/><path class="cls-2" d="M454,439.27H442.26v-98H454Z"/></svg>