<svg id="Capa_1" data-name="Capa 1" xmlns="http://www.w3.org/2000/svg" viewBox="0 0 510.24 510.24"><defs><style>.cls-1{fill:#ec6566;}.cls-2{fill:#0e4f55;}.cls-3{fill:#0f4f55;}</style></defs><path class="cls-1" d="M457.58,179.7q0-40.87,0-81.73c0-6.14-1.69-8.28-7.74-9.46-4.37-.86-8.8-1.41-13.19-2.11A670.3,670.3,0,0,1,265.15,34.28c-5.7-2.59-10.31-2.59-16,0-44.07,20.31-90,35.18-137.32,45.75-16,3.56-32.12,6-48.23,8.76-5.06.85-6.8,3.21-6.85,8.29-.07,5.81,0,11.61,0,17.42,0,7.82,2,10.82,7.26,10.93,5.49.12,7.65-3,7.65-11,0-11.37,0-11.38,11.14-13.21A687.76,687.76,0,0,0,251,50.46a13.45,13.45,0,0,1,12.17,0,665.16,665.16,0,0,0,173.93,51.63c4.46.68,5.66,2.48,5.64,6.9-.17,42.88,0,85.75-.15,128.63-.06,15.61-.69,31.21-3.43,46.65q-9.78,55-48.49,94c.17,2,1.91,4.1,3.19,5.58a28.31,28.31,0,0,0,4.69,4.26c.74.53,1.5,1,2.28,1.51q56-56.06,56.71-140.19C457.72,226.15,457.58,202.92,457.58,179.7Z"/><path class="cls-2" d="M387.94,393.18c-1.81-2.39-4.06-4.4-5.86-6.79C348.49,416.16,308.83,434,265.46,444.2c-4.33,1-8.66,1.67-13.23.69-34.12-7.29-65.95-20.14-95.11-39.35-34.57-22.77-60.36-52.68-74.41-92.08-8-22.56-10.78-46-11-69.73-.27-31.26-.07-62.53-.07-93.79,0-1.34,0-2.68,0-4-.28-5.14-4.08-8.06-9.12-7-4.08.82-5.75,3.26-5.75,8.69,0,34.54,0,69.08,0,103.61a199.56,199.56,0,0,0,2.58,31.07c7.89,50.57,32.39,91.51,72.05,123.44,34.76,28,74.8,44.84,118.11,54.45,3.93.87,7.9,1.5,11.94.68,41.66-8.52,80.39-24.08,114.54-49.67,5.33-4,10.36-8.12,15.16-12.38-.4-1-.86-1.94-1.33-2.9A30.07,30.07,0,0,0,387.94,393.18Z"/><path class="cls-3" d="M385.74,278.11c-1.27-2.33-8.81-4.67-8.81-7.3q.07-64.44,0-128.9c0-1.84-.16-3.68-.3-5.52-.25-3.37-2.33-5.39-5.46-6.65a11.12,11.12,0,0,0-4.36-.47h-219c-.56,0-1.11,0-1.66,0-4.4.17-7.66,3-8.09,7.18a53.71,53.71,0,0,0-.29,5.52q0,38.34,0,76.68a.53.53,0,0,1,.06-.1,3,3,0,0,1,1.27-.86l1.23-.62c1.31-.67,2.62-1.35,3.88-2.1a3.35,3.35,0,0,1,2.29-.47l.25.08V141.66c0-3.74,0-3.74,4-3.74H364c4,0,4,0,4,3.75V267.44c0,3.69,0,3.69-4,3.69H169.22a2.64,2.64,0,0,1,.23.44,2.85,2.85,0,0,1,2.51,1.91,3,3,0,0,1-1.84,3.84c-10.83,2.64-22.37,2.34-33.35.8a3.26,3.26,0,0,1-.73-.21c-5.41,10-10.49,20.18-16.19,30a35.4,35.4,0,0,0-4.68,18.55c0,7.1,5.06,11,11.69,11q130.43-.19,260.86,0c5.43,0,9.25-1.8,11.46-6.55V316.12C392.39,303.45,392.6,290.75,385.74,278.11Zm-241.5,3.21a2.61,2.61,0,0,1,2.66-1.49c.83,0,1.66,0,2.49,0q108,0,216-.07c3.22,0,4.91.9,6.32,3.68,5.09,10,10.47,19.93,15.74,29.87-.89.85-1.86.5-2.72.5-28.06,0-56.12,0-84.18.07-2.51,0-3.62-.78-4.18-3-.95-3.84-2.15-7.63-3.27-11.43-1.41-4.84-4-7-9.29-7.06q-26.44-.17-52.88,0c-5.28,0-7.85,2.24-9.27,7.09-1.2,4.06-2.42,8.1-3.54,12.18a2.56,2.56,0,0,1-2.83,2.23q-43.47-.06-86.94,0a7,7,0,0,1-1.16-.26C133,302.64,138.61,292,144.24,281.32Zm140.81,32.53c-9.23-.05-18.46,0-27.69,0s-18.47,0-27.7,0c-2.07,0-2.93-.43-2.16-2.58a77.59,77.59,0,0,0,2.27-7.87c.42-1.74,1.25-2.45,3.21-2.44q24.38.09,48.75,0c2,0,2.8.7,3.21,2.44a77.59,77.59,0,0,0,2.27,7.87C288,313.43,287.13,313.86,285.05,313.85Zm105.5,13.67a1.91,1.91,0,0,1-1.95,1.18c-1,0-2,0-3.05,0H128c-3.58,0-5.32-2.61-3.87-5.72a1.53,1.53,0,0,1,1.55-.87c.92,0,1.84,0,2.77,0H386.83C390.42,322.13,391.87,324.25,390.55,327.52Z"/><path class="cls-3" d="M359.78,217.84a19.47,19.47,0,0,0-.3-3.41,4,4,0,0,0-4.39-3.56,4.15,4.15,0,0,0-4.27,4c-.07.78,0,1.58,0,2.37,0,11.51-.06,23,0,34.53,0,2.25-.58,3.05-3.08,3.05q-84.57-.09-169.13,0a2.26,2.26,0,0,1,.9,2.41c-1.51,4.74-5.38,5.95-9.61,6.24H349.3a24.78,24.78,0,0,0,3.86-.19c4.07-.64,5.91-2.53,6.39-6.44a25.67,25.67,0,0,0,.23-3.15Q359.81,235.77,359.78,217.84Z"/><path class="cls-3" d="M359.75,154.19c-.05-6.42-2.55-8.58-9.35-8.58H166.83c.87,1.78.88,4.3,1,6,.07.88.11,1.77.12,2.66H346.21c4.58,0,4.58,0,4.58,4.23v28.2c0,2.37-.05,4.75,0,7.12a4.29,4.29,0,0,0,4,4.3,4.39,4.39,0,0,0,4.71-3.88,15.31,15.31,0,0,0,.26-2.62C359.79,179.14,359.86,166.66,359.75,154.19Z"/><path class="cls-3" d="M284.68,254.21c-2.58-19.15-12.45-33.28-29.06-42.71-.43-.24-.92-.83-1.43-.3s0,.89.16,1.32a35.34,35.34,0,0,1,2.12,10.14c.08,2.2.63,3.59,3,4.57,6.81,2.81,9.63,11,6.48,17.65a13,13,0,0,1-17.62,6.3,12.64,12.64,0,0,1-7.39-12.74c.27-5.51,3.18-9.33,8.1-11.45,1.73-.75,2.26-1.67,1.93-3.38-.43-2.27-.71-4.57-1.28-6.8-1.72-6.74-5.31-11.4-12.91-11.42-1.05,0-2.18-.4-2.55,1.19a17.23,17.23,0,0,1-3.81,6.9c-8.16,10-18.08,18.08-28.11,26a1.77,1.77,0,0,1-2.52-.16c-9.3-7.34-18.44-14.88-26.29-23.85-2.37-2.7-4.63-5.52-5.51-9.16-.26-1.08-1.09-1.11-1.92-1-1.66.23-3.31.62-5,.81-3.45.37-5.54,2.43-7.06,5.39a30.48,30.48,0,0,0-2.65,9.78c-.54,3.75.49,6.18,3.79,8.16A23.76,23.76,0,0,1,162,236c2.32,3.15,3.31,6.7,4.21,10.54,1.31,5.62,2.32,11.16,2,16.92-.25,3.87-1.68,6.79-5.68,8.29a18.38,18.38,0,0,1-6.92.9,3.85,3.85,0,0,1-4-3.71,4,4,0,0,1,3.89-3.73,16.69,16.69,0,0,1,4.24.05c1.68.33,2.08-.55,2.17-1.83a50.35,50.35,0,0,0-.15-8.14c-.61-6.77-4.47-11.84-8.53-16.7-2.93-3.53-6.07-3.27-9.43-.13-3.08,2.86-4.91,6.7-6.91,10.18-2.6,4.53-2.71,10-1.89,15.32.18,1.18.71,1.52,1.95,1.36a12.83,12.83,0,0,1,5.81.19,3.39,3.39,0,0,1,2.48,3.92,3.51,3.51,0,0,1-3.37,3.2,28.87,28.87,0,0,1-4.65,0c-4.91-.5-7.89-3.16-8.57-8-1.14-8.21.78-16.1,3.51-23.69,1.74-4.84,5.27-8.56,9.6-11.56,1.87-1.29,3.76-3.07,3.86-6a36.23,36.23,0,0,1,1.24-8.52,3.08,3.08,0,0,1-2-2.25,52.35,52.35,0,0,0-12.41,9.87c-10.9,11.82-16,25.85-15.11,41.94.66,11.74,5.48,20.21,18.7,23.71,7.69,2,15.59,2.26,23.47,2.34,13.83.13,27.66,0,41.49,0s27.93.08,41.89,0c7.41-.05,14.83-.34,22.1-2,9.79-2.21,16.83-7.5,19.2-17.83A45.78,45.78,0,0,0,284.68,254.21Z"/><path class="cls-3" d="M247.47,148.71c-.53,15.51-5.64,29.51-14,42.38A55.81,55.81,0,0,1,218,207.36c-11.75,7.91-24.53,7.41-35.67-1.36-10.52-8.3-17.28-19.31-22.13-31.63a70.6,70.6,0,0,1-5.39-26.4c.08-21,14.59-39.74,34.78-44.8a46.33,46.33,0,0,1,57.26,37.59A37,37,0,0,1,247.47,148.71Z"/><path class="cls-3" d="M260.38,239.11a6.19,6.19,0,0,1-6.25,6.53,6.33,6.33,0,0,1-6.55-6.32,6.61,6.61,0,0,1,6.55-6.62A6.31,6.31,0,0,1,260.38,239.11Z"/></svg>