<svg width="2000" height="2000" viewBox="0 0 2000 2000" fill="none" xmlns="http://www.w3.org/2000/svg">
<path d="M1221.6 1695.47L1222.12 1579.47L1324.43 1579.94L1324.33 1601.66L1432.51 1640.04L1432.25 1696.42L1347.15 1696.04L1310.88 1695.87L1283.9 1695.75L1221.6 1695.47Z" fill="#6372FF"/>
<path d="M1299.32 325.236C1306.3 317.284 1315.16 332.047 1319.58 340.973C1327.79 316.747 1388.74 334.621 1383.28 357.614C1376.7 377.682 1365.81 399.043 1356.69 413.196L1305.23 399.267C1292.07 392.9 1285.3 341.197 1299.32 325.236Z" fill="#FF9494"/>
<path d="M896.39 312.761C890.047 304.325 880.121 318.479 875.043 327.101C868.716 302.301 806.748 315.965 810.428 339.339C815.453 359.868 824.662 381.986 832.661 396.772L884.901 386.4C898.469 380.941 909.125 329.695 896.39 312.761Z" fill="#FF9494"/>
<path d="M1283.93 388.671L1374.23 410.671C1358.19 511.968 1269.64 726.393 1113.48 803.625C1044.74 837.625 1035.98 800.27 1059.83 753.294C1097.13 679.841 1204.18 577.971 1204.18 577.971C1204.18 577.971 1258.26 479.883 1283.93 388.671Z" fill="#5061FF"/>
<path d="M1086.11 499.686L1048.15 521.782C1047.63 526.358 1050.92 543.584 1052.64 551.627C1055.59 562.775 1063.07 575.609 1072.95 584.813L1062.49 640.35L1121.91 647.083L1128.26 591.08C1169.7 588.922 1162.59 492.708 1143.1 476.391L1086.11 499.686Z" fill="#FF9494"/>
<path d="M521 1501.54L631.921 1466.82L662.664 1564.61L641.893 1571.11L638.213 1686.01L584.302 1702.88L558.73 1621.55L547.832 1586.88L539.726 1561.1L521 1501.54Z" fill="#6372FF"/>
<path d="M1383.78 1585.72L1175.14 1585.89L1175.14 1296.67L1019.46 1184.83L1000.42 986.344L1257.39 1011.72L1367.35 1224.25L1383.78 1585.72Z" fill="#2D2B38"/>
<path d="M668.487 1598L612.987 1420.25L921.674 1333.5C921.674 1333.5 884.801 1116.09 917.487 982L1068.79 986.184L1160.63 1022.9L1054.99 1517.5L668.487 1598Z" fill="#2D2B38"/>
<path d="M1115.67 1254.78L1111.59 1254.01L1136.24 1124.79L1140.32 1125.57L1115.67 1254.78Z" fill="white"/>
<path fill-rule="evenodd" clip-rule="evenodd" d="M1126.88 596.657L1126.89 596.658L1127.42 591.974C1125.33 591.738 1121.4 591.292 1117.28 590.57C1113.11 589.839 1108.97 588.86 1106.39 587.627L1104.61 591.953C1107.73 593.44 1112.34 594.488 1116.52 595.22C1120.76 595.964 1124.79 596.42 1126.88 596.657Z" fill="#2D2B38"/>
<path d="M1188.73 475.191C1206.1 505.021 1141.21 541.715 1120.25 519.171C1092.83 489.681 1085.63 528.757 1085.63 528.757C1077.3 516.087 1059.11 527.69 1062.27 543.87C1065.1 558.359 1046.74 577.049 1042.62 531.305C1018.92 528.619 1000.75 469.721 1052.73 457.178C1079.59 411.429 1134.12 433.386 1132.17 450.609C1157.58 435.84 1171.22 459.995 1163.26 472.304C1167.42 465.855 1183.6 466.376 1188.73 475.191Z" fill="#2D2B38"/>
<path d="M917.487 982L1257.39 1011.72C1257.39 1011.72 1235.39 774.498 1219.34 720.219C1203.28 665.939 1183.14 655.274 1153.95 638.303C1093.4 603.103 1037.29 633.043 998.901 689.145C960.512 745.247 917.487 982 917.487 982Z" fill="#6372FF"/>
<path d="M908.998 378.588L817.785 394.172C829.702 490.884 930.824 727.011 1085.23 806.662C1153.21 841.727 1162.37 804.378 1139.21 756.922C1103 682.72 991.96 573.388 991.96 573.388C991.96 573.388 929.624 467.05 908.998 378.588Z" fill="#6372FF"/>
<path fill-rule="evenodd" clip-rule="evenodd" d="M1184.31 994.957L1242.25 999.201C1242.71 999.258 1243.18 999.121 1243.53 998.833C1243.89 998.538 1244.12 998.111 1244.16 997.653L1236.79 933.82L1233.38 933.528L1240.91 995.599L1184.72 991.567L1184.31 994.957Z" fill="white"/>
<path d="M928.798 974.104L943.697 914.06L948.384 910.253L933.664 970.891L999.711 976.818L999.499 980.249L928.798 974.104Z" fill="white"/>
<path fill-rule="evenodd" clip-rule="evenodd" d="M857.756 1365.88L787.091 1401.92C786.448 1401.99 785.866 1402.34 785.508 1402.89C785.147 1403.42 785.047 1404.09 785.239 1404.7L822.245 1522.34L826.39 1521.03L790.162 1405.86L858.207 1370.13L857.756 1365.88Z" fill="white"/>
<path fill-rule="evenodd" clip-rule="evenodd" d="M1182.86 1522.43L1192.15 1609.8C1192.02 1610.44 1192.18 1611.11 1192.59 1611.62C1193 1612.13 1193.6 1612.43 1194.24 1612.43L1317.86 1612.43L1317.86 1608.03L1196.84 1608.03L1187.05 1523.28L1182.86 1522.43Z" fill="white"/>
<path d="M961.7 775.793L960.871 779.762L1020.13 750.165L1018.92 747.21L961.7 775.793Z" fill="white"/>
</svg>
